<svg width="137" height="23" viewBox="0 0 137 23" fill="none" xmlns="http://www.w3.org/2000/svg">
<g clip-path="url(#clip0_1_2)">
<line x1="11.6923" y1="9.5" x2="30.6923" y2="9.5" stroke="#E3E3E3" stroke-width="4.38462"/>
<rect x="5" width="9" height="19" rx="1.5" fill="url(#paint0_linear_1_2)"/>
<rect x="29" width="9" height="19" rx="1.5" fill="url(#paint1_linear_1_2)"/>
<rect x="39" y="5" width="4" height="10" rx="1.5" fill="url(#paint2_linear_1_2)"/>
<rect y="5" width="4" height="10" rx="1.5" fill="url(#paint3_linear_1_2)"/>
<path d="M50.52 9.654C50.52 7.01933 51.2827 4.922 52.808 3.362C54.3507 1.802 56.526 1.022 59.334 1.022C60.3393 1.022 61.258 1.126 62.09 1.334C62.9393 1.542 63.6327 1.81933 64.17 2.166C64.7073 2.49533 65.184 2.85933 65.6 3.258C66.016 3.65667 66.328 4.064 66.536 4.48C66.7613 4.87867 66.9347 5.25133 67.056 5.598C67.1947 5.92733 67.2813 6.196 67.316 6.404L67.368 6.716H63.754C63.7367 6.64667 63.7107 6.55133 63.676 6.43C63.6413 6.29133 63.52 6.066 63.312 5.754C63.1213 5.42467 62.8787 5.13867 62.584 4.896C62.2893 4.636 61.856 4.41067 61.284 4.22C60.7293 4.012 60.088 3.908 59.36 3.908C57.644 3.908 56.344 4.428 55.46 5.468C54.576 6.49067 54.134 7.886 54.134 9.654C54.134 11.37 54.5933 12.7567 55.512 13.814C56.4307 14.854 57.7047 15.374 59.334 15.374C60.1487 15.374 60.868 15.2613 61.492 15.036C62.116 14.7933 62.5927 14.49 62.922 14.126C63.2687 13.7447 63.5287 13.3893 63.702 13.06C63.8753 12.7133 64.0053 12.3667 64.092 12.02H59.308V9.212H67.524C67.5413 9.576 67.55 9.93133 67.55 10.278C67.55 12.7393 66.8567 14.6893 65.47 16.128C64.0833 17.5493 62.038 18.26 59.334 18.26C56.5087 18.26 54.3333 17.4887 52.808 15.946C51.2827 14.4033 50.52 12.306 50.52 9.654ZM67.9995 6.3H71.5095L74.3435 14.1L77.3335 6.3H80.8175L75.6175 19.066C75.3748 19.69 75.1755 20.1493 75.0195 20.444C74.8808 20.756 74.6902 21.0853 74.4475 21.432C74.2048 21.796 73.9448 22.056 73.6675 22.212C73.3902 22.368 73.0348 22.498 72.6015 22.602C72.1682 22.706 71.6482 22.758 71.0415 22.758H68.9355V19.95H71.0415C71.4748 19.95 71.7695 19.8893 71.9255 19.768C72.0988 19.664 72.2635 19.43 72.4195 19.066L72.8615 17.896L67.9995 6.3ZM84.7787 6.3V7.964C85.524 6.73333 86.6853 6.092 88.2627 6.04C88.332 6.04 88.41 6.04 88.4967 6.04C90.594 6.04 92.0067 6.75933 92.7347 8.198C93.636 6.81133 94.9707 6.092 96.7387 6.04C96.8427 6.04 96.938 6.04 97.0247 6.04C98.758 6.04 99.9973 6.51667 100.743 7.47C101.488 8.406 101.861 9.80133 101.861 11.656V18H98.5067V11.656C98.5067 10.6853 98.3073 9.94867 97.9087 9.446C97.5273 8.94333 96.99 8.692 96.2967 8.692C95.2393 8.692 94.4853 9.01267 94.0347 9.654C93.6013 10.2953 93.3847 11.292 93.3847 12.644V18H90.0307V11.656C90.0307 10.6853 89.8313 9.94867 89.4327 9.446C89.0513 8.94333 88.514 8.692 87.8207 8.692C86.7633 8.692 86.0093 9.01267 85.5587 9.654C85.1253 10.2953 84.9087 11.292 84.9087 12.644V18H81.5547V6.3H84.7787ZM110.411 1.282C115.004 1.282 117.301 3.05867 117.301 6.612C117.301 8.25867 116.737 9.59333 115.611 10.616C114.501 11.6213 112.768 12.124 110.411 12.124H106.875V18H103.495V1.282H110.411ZM106.875 4.09V9.29H110.411C111.503 9.29 112.361 9.06467 112.985 8.614C113.609 8.146 113.921 7.47867 113.921 6.612C113.921 4.93067 112.751 4.09 110.411 4.09H106.875ZM117.372 14.776C117.372 12.2107 120.154 10.7893 125.718 10.512H125.952V10.33C125.952 9.11667 125.172 8.51 123.612 8.51C122.954 8.51 122.434 8.614 122.052 8.822C121.688 9.03 121.48 9.238 121.428 9.446L121.35 9.758H117.944C117.944 9.654 117.962 9.524 117.996 9.368C118.031 9.19467 118.161 8.9 118.386 8.484C118.612 8.05067 118.906 7.66933 119.27 7.34C119.634 7.01067 120.198 6.716 120.96 6.456C121.723 6.17867 122.616 6.04 123.638 6.04C125.476 6.04 126.862 6.42133 127.798 7.184C128.752 7.92933 129.228 8.96933 129.228 10.304L129.254 13.71V14.36C129.254 14.672 129.298 14.8887 129.384 15.01C129.488 15.1313 129.67 15.192 129.93 15.192H130.268V18H129.904C128.847 18 128.041 17.9047 127.486 17.714C126.932 17.506 126.533 17.1333 126.29 16.596C125.372 17.7053 123.924 18.26 121.948 18.26C120.423 18.26 119.279 17.9307 118.516 17.272C117.754 16.6133 117.372 15.7813 117.372 14.776ZM120.804 14.698C120.804 15.0447 120.969 15.3133 121.298 15.504C121.628 15.6947 122.044 15.7987 122.546 15.816C122.581 15.816 122.616 15.816 122.65 15.816C123.448 15.816 124.193 15.5907 124.886 15.14C125.597 14.6893 125.952 14.0567 125.952 13.242V12.566C125.259 12.618 124.696 12.67 124.262 12.722C123.846 12.774 123.326 12.8693 122.702 13.008C122.078 13.1467 121.602 13.3633 121.272 13.658C120.96 13.9353 120.804 14.282 120.804 14.698ZM131.6 1.282H134.954V14.308C134.954 14.6373 135.015 14.8713 135.136 15.01C135.258 15.1313 135.483 15.192 135.812 15.192H136.748V18H135.812C134.2 18 133.091 17.7573 132.484 17.272C131.895 16.7867 131.6 15.7987 131.6 14.308V1.282Z" fill="white"/>
</g>
<defs>
<linearGradient id="paint0_linear_1_2" x1="9.5" y1="0" x2="9.5" y2="19" gradientUnits="userSpaceOnUse">
<stop stop-color="#F2FD84"/>
<stop offset="1" stop-color="#9DAD00"/>
</linearGradient>
<linearGradient id="paint1_linear_1_2" x1="33.5" y1="0" x2="33.5" y2="19" gradientUnits="userSpaceOnUse">
<stop stop-color="#F2FD84"/>
<stop offset="1" stop-color="#9DAD00"/>
</linearGradient>
<linearGradient id="paint2_linear_1_2" x1="41" y1="5" x2="41" y2="15" gradientUnits="userSpaceOnUse">
<stop stop-color="#F2FD84"/>
<stop offset="1" stop-color="#9DAD00"/>
</linearGradient>
<linearGradient id="paint3_linear_1_2" x1="2" y1="5" x2="2" y2="15" gradientUnits="userSpaceOnUse">
<stop stop-color="#F2FD84"/>
<stop offset="1" stop-color="#9DAD00"/>
</linearGradient>
<clipPath id="clip0_1_2">
<rect width="137" height="23" fill="white"/>
</clipPath>
</defs>
</svg>
